/vscmnt/brussel_pixiu_data/_data_brussel/112/vsc11236/PredSimResults/SUBJ09mtu3D/worker5.mot
version=1
nRows=8
nColumns=50
inDegrees=yes
endheader
                time	         pelvis_tilt	         pelvis_list	     pelvis_rotation	           pelvis_tx	           pelvis_ty	           pelvis_tz	       hip_flexion_r	     hip_adduction_r	      hip_rotation_r	        knee_angle_r	       ankle_angle_r	         mtp_angle_r	       hip_flexion_l	     hip_adduction_l	      hip_rotation_l	        knee_angle_l	       ankle_angle_l	         mtp_angle_l	    lumbar_extension	      lumbar_bending	     lumbar_rotation	 ercspn_r/activation	 intobl_r/activation	 extobl_r/activation	    abd_r/activation	    add_r/activation	hamstrings_r/activation	bifemsh_r/activation	glut_max_r/activation	iliopsoas_r/activation	rect_fem_r/activation	  vasti_r/activation	gastroc_r/activation	 soleus_r/activation	tib_ant_r/activation	 ercspn_l/activation	 intobl_l/activation	 extobl_l/activation	    abd_l/activation	    add_l/activation	hamstrings_l/activation	bifemsh_l/activation	glut_max_l/activation	iliopsoas_l/activation	rect_fem_l/activation	  vasti_l/activation	gastroc_l/activation	 soleus_l/activation	tib_ant_l/activation	
          0.00000000	         -2.83805011	         -1.62896167	          7.94534573	          0.00000000	          0.99465067	         -0.00448523	         27.70913926	         -0.42915615	         -6.58566621	         -6.63829435	          4.20772486	          0.21940528	        -12.81056136	         -2.56497544	         -1.61433644	        -11.33434976	          8.28528317	         31.11456239	        -14.17976852	         -0.31613093	         -3.90876328	          0.02599753	          0.17986975	          0.05087443	          0.06694104	          0.14101208	          0.03612410	          0.09248743	          0.01001252	          0.14523495	          0.04364151	          0.01685689	          0.01700118	          0.01066657	          0.29540647	          0.01002070	          0.01000992	          0.01001064	          0.03266856	          0.01000713	          0.01988677	          0.19531921	          0.02128626	          0.01014642	          0.01006347	          0.01002412	          0.18286701	          0.28400155	          0.01039936	
          0.01186498	         -2.86822497	         -1.61155634	          7.76123427	          0.01847530	          0.99275428	         -0.00426928	         27.36684480	         -0.18369368	         -6.36230333	         -7.41065160	          3.82736640	          0.24462115	        -13.51033300	         -2.63425700	         -2.20248635	        -11.94145010	          7.29555221	         32.79817554	        -13.76037157	          0.02282879	         -3.90770292	          0.02171142	          0.15017598	          0.04247594	          0.05589382	          0.15129357	          0.03016901	          0.07723732	          0.10845556	          0.12125754	          0.03644093	          0.01692206	          0.01420217	          0.01002688	          0.30062251	          0.02304655	          0.01003443	          0.01006656	          0.02727558	          0.02260254	          0.02148883	          0.16321516	          0.01777488	          0.01052773	          0.01006627	          0.01002191	          0.15269536	          0.26063206	          0.01000218	
          0.02372996	         -2.88131277	         -1.61270235	          7.54249971	          0.03737263	          0.99092880	         -0.00404098	         26.95494551	          0.03189867	         -6.05403268	         -8.58141681	          3.59231282	          0.20666819	        -14.09221678	         -2.72278451	         -2.82025546	        -12.82980483	          6.22695572	         34.46691660	        -13.30186179	          0.39475534	         -3.88829808	          0.01814022	          0.12539138	          0.03546407	          0.12803367	          0.14137381	          0.04412903	          0.06451584	          0.09485330	          0.10123856	          0.03042833	          0.01413384	          0.01418868	          0.01200438	          0.32658911	          0.01930274	          0.01000843	          0.01009221	          0.02277294	          0.01887611	          0.01843881	          0.13634677	          0.01484252	          0.01112507	          0.01003249	          0.01001282	          0.12748933	          0.23550048	          0.01000280	
          0.03559494	         -2.88300309	         -1.61736364	          7.28300702	          0.05638892	          0.98939118	         -0.00375600	         26.52599548	          0.23844857	         -5.79403708	         -9.73681916	          3.18206846	          0.20710350	        -14.45634488	         -2.81996877	         -3.46388850	        -14.12706246	          5.03760794	         36.09760445	        -12.83836260	          0.77822532	         -3.84449566	          0.01518977	          0.10469127	          0.02960983	          0.17277624	          0.14870021	          0.04178573	          0.05388999	          0.11459969	          0.08452478	          0.02540825	          0.01181514	          0.01185380	          0.01002600	          0.35821789	          0.03224479	          0.01001129	          0.01005130	          0.01901362	          0.01577410	          0.02045681	          0.11386488	          0.01239448	          0.01406364	          0.01004735	          0.01001823	          0.10644281	          0.19666636	          0.01000377	
          0.04745991	         -2.87471779	         -1.62240781	          6.98465983	          0.07523817	          0.98832119	         -0.00340638	         26.20346906	          0.43143705	         -5.60515416	        -11.06238099	          2.72999695	          0.17804453	        -14.50640982	         -2.93143356	         -4.12436172	        -15.96689827	          3.73043995	         37.57936822	        -12.40285653	          1.17000776	         -3.77482136	          0.01476474	          0.08740833	          0.02472218	          0.20880133	          0.17400072	          0.04544055	          0.04501539	          0.10851973	          0.07057042	          0.02121698	          0.07406165	          0.01004612	          0.01001863	          0.38198687	          0.05872239	          0.01001196	          0.01002150	          0.01587493	          0.05268312	          0.01808980	          0.09509092	          0.01035176	          0.02493327	          0.01002492	          0.01000934	          0.08887045	          0.16419850	          0.01000292	
          0.05932489	         -2.85850895	         -1.62152325	          6.64965854	          0.09376208	          0.98787863	         -0.00301099	         25.92912892	          0.61021376	         -5.46428730	        -12.49053128	          2.51298691	          0.14026626	        -14.16464964	         -3.06045694	         -4.80733436	        -18.45516889	          2.30434477	         38.71971999	        -12.01142448	          1.56389605	         -3.67932652	          0.01252109	          0.07297855	          0.02064159	          0.22999922	          0.18231691	          0.04588679	          0.03760782	          0.13341383	          0.05891994	          0.01771776	          0.13475772	          0.01009352	          0.01005531	          0.38511617	          0.07928957	          0.01001316	          0.01003691	          0.01325447	          0.09435641	          0.01911435	          0.07941560	          0.01000446	          0.02099154	          0.01001395	          0.01000398	          0.07419910	          0.13709003	          0.01000814	
          0.07118987	         -2.83707895	         -1.60604313	          6.27676209	          0.11183085	          0.98821301	         -0.00260086	         25.60271207	          0.77574936	         -5.34186156	        -13.83643076	          2.57028373	          0.10752096	        -13.37317084	         -3.21246854	         -5.53273828	        -21.67190652	          0.83476783	         39.10061149	        -11.67652045	          1.95237810	         -3.55491812	          0.01085221	          0.06093102	          0.01723498	          0.23285157	          0.18817246	          0.04948896	          0.03142650	          0.14715629	          0.04919295	          0.01479652	          0.16501636	          0.01008645	          0.01002305	          0.36916743	          0.07171759	          0.01000783	          0.01004804	          0.01106693	          0.12948587	          0.01840132	          0.06632292	          0.01000334	          0.01755134	          0.01001255	          0.01000297	          0.06194998	          0.11445688	          0.01000326	
          0.08305485	         -2.81166756	         -1.56593629	          5.86381250	          0.12938251	          0.98934952	         -0.00220779	         25.16522122	          0.92517297	         -5.20018306	        -14.97997121	          2.85248834	          0.08987020	        -12.11874113	         -3.39392075	         -6.27651829	        -25.60042846	         -0.76773259	         38.58786495	        -11.40406954	          2.32697786	         -3.39754039	          0.01003670	          0.05087241	          0.01439151	          0.22255828	          0.18205870	          0.05529326	          0.02627085	          0.14534061	          0.04107190	          0.01235831	          0.18774891	          0.01007306	          0.01002756	          0.33486925	          0.05990404	          0.01123610	          0.02069130	          0.01000319	          0.15548209	          0.02085208	          0.05539004	          0.01000683	          0.01466526	          0.01000762	          0.01000245	          0.05172326	          0.09556038	          0.01019283	
